<?xml version="1.0" encoding="utf-8"?>
<!-- Generator: Adobe Illustrator 22.1.0, SVG Export Plug-In . SVG Version: 6.00 Build 0)  -->
<svg version="1.1" xmlns="http://www.w3.org/2000/svg" xmlns:xlink="http://www.w3.org/1999/xlink" x="0px" y="0px"
	 viewBox="0 0 267 239.7" style="enable-background:new 0 0 267 239.7;" xml:space="preserve">
<style type="text/css">
	.st0{opacity:0.18;fill:#2B1E5E;}
	.st1{fill:#DD311F;}
	.st2{fill:#EF3E23;}
	.st3{fill:none;}
	.st4{display:none;}
	.st5{display:inline;fill:none;}
	.st6{display:inline;}
	.st7{enable-background:new    ;}
	.st8{fill:#F90808;}
	.st9{fill:none;stroke:#F40000;stroke-width:9;stroke-miterlimit:10;}
	.st10{fill:#00D9FF;}
	.st11{fill:#EFC929;}
	.st12{fill:#390D9B;}
	.st13{fill:#EDB52B;}
	.st14{fill:#F7DCD5;}
	.st15{fill:#F7D7D6;}
	.st16{fill:#E5BDBD;}
	.st17{fill:none;stroke:#000000;stroke-miterlimit:10;}
	.st18{fill:#F7AED6;}
	.st19{fill:#FFFFFF;}
</style>
<g id="Layer_2">
	<path class="st0" d="M249,67.2c0-1.9-0.8-3.7-2-5c0.7-1.1,1.1-2.4,1.1-3.8c0-4.1-3.7-7.5-8.1-7.5c-0.5,0-0.9,0-1.3,0.1
		c-0.5-3.7-4-6.5-8.1-6.5c-0.2,0-0.4,0-0.5,0c-1.5-1.9-3.9-3.2-6.7-3.2c-2.3,0-4.5,0.9-6,2.4c-0.2,0.1-0.3,0.1-0.5,0.2
		c-1.5-1.2-3.4-1.9-5.5-1.9c-3,0-5.6,1.5-7,3.7c-0.5-0.1-1.2-0.2-1.8-0.2c-3.8,0-6.9,2.3-7.8,5.5c-2.6,1.3-4.4,3.8-4.4,6.7
		c0,0.6,0.1,1.3,0.2,1.9c-1.7,1.4-2.7,3.4-2.7,5.7c0,1.7,0.5,3.2,1.6,4.5c-1.3,1.2-2,2.8-2,4.7c0,2.3,1.1,4.4,2.9,5.7
		c-0.1,0.8,0.1,1.7,0.5,2.5l1.7,3.4c0.8,1.6,2.4,2.3,3.9,2c2,9.2,9.1,16.2,17.9,16.6v1.5h-0.2c-0.9,0-1.7,0.3-2.3,0.9
		c-0.1,0-0.1,0-0.2,0L211,107c-1.7-0.2-3.3,1.3-3.4,3.3l-2.6,30.9c-0.2,2,1.1,3.9,2.8,4l0.5,0.1l-1.8,16.7c0,0.5,0,1,0.1,1.4
		c-0.4,0.7-0.6,1.5-0.6,2.3c0,2.3,1.6,4.2,3.6,4.2h2.5c2,0,3.6-1.9,3.6-4.2c0-0.6-0.1-1.2-0.4-1.8c0.1-0.2,0.1-0.5,0.1-0.7l2.8-25.8
		h0.6l2.8,26c-0.4,0.7-0.6,1.5-0.6,2.3c0,2.3,1.6,4.2,3.6,4.2h2.5c2,0,3.7-1.9,3.6-4.2c0-0.8-0.2-1.5-0.6-2.2c0-0.1,0-0.2,0-0.3
		l-1.9-18.1c0.4,0.2,0.8,0.2,1.3,0.1l0.6-0.1c1.7-0.2,3-2,2.8-4l-2.6-30.9c-0.2-2-1.7-3.5-3.4-3.3l-0.6,0.1c-0.2,0-0.3,0.1-0.5,0.1
		c-0.5-0.5-1.2-0.8-2-0.9c0,0,0,0,0,0v-1.7c8.1-1.1,14.6-7.8,16.4-16.6c0.8-0.3,1.6-0.9,2-1.9l1.7-3.4c0.3-0.5,0.4-1.1,0.5-1.6
		c2.6-1.3,4.4-3.8,4.4-6.7c0-1.3-0.4-2.6-1-3.6C248.7,69.8,249,68.5,249,67.2z"/>
	<path class="st1" d="M235.6,230.1H40.7c-10.6,0-19.2-8.6-19.2-19.2v-52.6c0-10.6,8.6-19.2,19.2-19.2h194.9
		c10.6,0,19.2,8.6,19.2,19.2v52.6C254.8,221.5,246.2,230.1,235.6,230.1z"/>
	<path class="st2" d="M230.4,226.3H35.5c-10.6,0-19.2-8.6-19.2-19.2v-52.6c0-10.6,8.6-19.2,19.2-19.2h194.9
		c10.6,0,19.2,8.6,19.2,19.2v52.6C249.6,217.7,241,226.3,230.4,226.3z"/>
	<path class="st1" d="M19.9,154.3c0,0,1.1-15.7,14.2-15.7"/>
	<path class="st1" d="M35.7,222.9c0,0-14.3-1.2-14.3-15.5"/>
	<path class="st1" d="M244.7,207.9c0,0-1.2,15.7-15.5,15.7"/>
	<path class="st1" d="M227.4,139.3c0,0,15.7,1.2,15.7,15.5"/>
	<rect x="52" y="0.7" class="st3" width="168" height="22.3"/>
</g>
<g id="Layer_1">
	<g id="Layer_3" class="st4">
		<rect x="139.2" y="443.2" class="st5" width="500" height="259.5"/>
		
			<text transform="matrix(1 0 0 1 139.1667 618.5837)" style="display:inline;fill:#F90808; font-family:'Arial-Black'; font-size:245px;">404</text>
		
			<text transform="matrix(1 0 0 1 139.1667 618.5837)" style="display:inline;fill:none;stroke:#F40000;stroke-width:9;stroke-miterlimit:10; font-family:'Arial-Black'; font-size:245px;">404</text>
	</g>
	<g id="Layer_2_2_">
		<path class="st10" d="M247.7,62.4c0-2.1-1-3.9-2.6-5.3c0.9-1.2,1.4-2.6,1.4-4c0-4.4-4.6-8.1-10.2-8.1c-0.6,0-1.2,0-1.7,0.1
			c-0.7-3.9-5-7-10.1-7c-0.2,0-0.5,0-0.7,0c-1.9-2.1-4.9-3.4-8.3-3.4c-2.9,0-5.6,1-7.5,2.6c-0.2,0.1-0.4,0.1-0.6,0.2
			c-1.9-1.3-4.2-2.1-6.9-2.1c-3.7,0-7,1.6-8.7,3.9c-0.7-0.1-1.5-0.2-2.3-0.2c-4.7,0-8.6,2.5-9.8,5.9c-3.2,1.4-5.5,4-5.5,7.2
			c0,0.7,0.1,1.4,0.3,2.1c-2.2,1.5-3.4,3.6-3.4,6.1c0,1.8,0.7,3.4,2,4.8c-1.7,1.3-2.6,3-2.6,5c0,3.8,3.4,7.1,8.1,7.9
			c1.4,3.1,5.2,5.5,9.7,5.5c5.7,0,10.2-3.6,10.2-8.1c0-3.8-3.4-7.1-8.1-7.9c-0.3-0.8-0.8-1.5-1.5-2.2c1.5-1.4,2.4-3.2,2.4-5.2
			c0-0.7-0.1-1.4-0.3-2.1c1.5-1,2.6-2.4,3-3.8c1.7-0.7,3-1.8,4-3c0.7,0.1,1.5,0.2,2.3,0.2c1.3,0,2.6-0.2,3.7-0.6
			c1.9,1.3,4.2,2.1,6.9,2.1c2.2,0,4.1-0.5,5.8-1.4c1.9,1.7,4.6,2.7,7.6,2.7c0.6,0,1.2,0,1.7-0.1c0.3,1.6,1.2,3,2.5,4.2
			c-0.9,1.2-1.4,2.6-1.4,4c0,1.4,0.5,2.8,1.3,3.8c-0.5,0.8-0.9,1.6-1.1,2.5c-4,1.1-6.9,4.1-6.9,7.7c0,4.4,4.6,8.1,10.2,8.1
			c5,0,9.2-2.8,10.1-6.7c4-1.1,6.9-4.1,6.9-7.7c0-1.4-0.5-2.8-1.3-3.8C247.3,65.1,247.7,63.8,247.7,62.4z"/>
		<path class="st11" d="M218.8,134.1h-17.1c-2.3,0-4.1-1.5-4.1-3.3l2.2-23.3c0-1.9,1.9-3.3,4.1-3.3h11.9c2.3,0,4.1,1.5,4.1,3.3
			l3,23.3C222.9,132.6,221,134.1,218.8,134.1z"/>
		<path class="st12" d="M200.2,169.4l-1.6-0.2c-2.7-0.3-4.5-2.8-4.2-5.4l3.7-29.9c0.3-2.7,2.8-4.5,5.4-4.2l1.6,0.2
			c2.7,0.3,4.5,2.8,4.2,5.4l-3.7,29.9C205.3,167.8,202.9,169.6,200.2,169.4z"/>
		<path class="st12" d="M220.5,169.6l-2.6,0.3c-2.2,0.3-4.2-1.3-4.5-3.5l-3.9-31.5c-0.3-2.2,1.3-4.2,3.5-4.5l2.6-0.3
			c2.2-0.3,4.2,1.3,4.5,3.5l3.9,31.5C224.3,167.3,222.7,169.4,220.5,169.6z"/>
		<path class="st12" d="M213.2,137.5h-7.4c-0.9,0-1.6-0.7-1.6-1.6v-0.9c0-0.9,0.7-1.6,1.6-1.6h7.4c0.9,0,1.6,0.7,1.6,1.6v0.9
			C214.8,136.8,214.1,137.5,213.2,137.5z"/>
		<path class="st13" d="M223.3,145.9l0.8-0.1c2.2-0.2,3.7-2.2,3.5-4.3l-3.2-33c-0.2-2.2-2.2-3.7-4.3-3.5l-0.8,0.1
			c-2.2,0.2-3.7,2.2-3.5,4.3l3.2,33C219.2,144.5,221.1,146.2,223.3,145.9z"/>
		<path class="st13" d="M196.8,145.9l-0.8-0.1c-2.2-0.2-3.7-2.2-3.5-4.3l3.2-33c0.2-2.2,2.2-3.7,4.3-3.5l0.8,0.1
			c2.2,0.2,3.7,2.2,3.5,4.3l-3.2,33C200.9,144.5,198.9,146.2,196.8,145.9z"/>
		<path d="M201.4,172.3h-3.1c-2.5,0-4.5-2.1-4.5-4.5l0,0c0-2.5,2.1-4.5,4.5-4.5h3.1c2.5,0,4.5,2.1,4.5,4.5l0,0
			C205.9,170.2,203.8,172.3,201.4,172.3z"/>
		<path d="M220.3,172.3h-3.1c-2.5,0-4.5-2.1-4.5-4.5l0,0c0-2.5,2.1-4.5,4.5-4.5h3.1c2.5,0,4.5,2.1,4.5,4.5l0,0
			C224.9,170.2,222.8,172.3,220.3,172.3z"/>
	</g>
	<g id="Layer_1_2_">
		<path class="st14" d="M212.9,47.9h-7.5C191.9,47.9,181,58.3,181,71v2.7l0.1,7.6c1,11.5,10.8,20.7,23.1,21.3v1.6
			c0,2,1.6,3.6,3.6,3.6h4.7c2,0,3.6-1.6,3.6-3.6v-1.8c11.3-1.4,20.2-10.1,21.2-21.1l0.1-7.7V71C237.3,58.3,226.4,47.9,212.9,47.9z"
			/>
		<path class="st15" d="M180.7,83.2"/>
		<path class="st14" d="M183,84.3L183,84.3c2.2-1.3,2.9-4,1.7-6.2l-2.2-3.6c-1.3-2.2-4-2.9-6.2-1.7l0,0c-2.2,1.3-2.9,4-1.7,6.2
			l2.2,3.6C178.1,84.8,180.9,85.5,183,84.3z"/>
		<path class="st14" d="M233.1,84.3L233.1,84.3c-2.2-1.3-2.9-4-1.7-6.2l2.2-3.6c1.3-2.2,4-2.9,6.2-1.7l0,0c2.2,1.3,2.9,4,1.7,6.2
			l-2.2,3.6C238.1,84.8,235.3,85.5,233.1,84.3z"/>
		<path class="st16" d="M206.3,84.6c0,0,2.8-5.6,5.7,0H206.3z"/>
		<path class="st17" d="M213.4,89.8c0,0-0.5-0.7-1.4-1.3c-1.6-1.1-4.2-1.9-6.9,1.3"/>
		<ellipse class="st18" cx="225.8" cy="84.4" rx="4.9" ry="1.2"/>
		<ellipse class="st18" cx="193.1" cy="84.4" rx="4.9" ry="1.2"/>
		<path d="M180.9,77.4"/>
		<path class="st17" d="M190.2,76.9c0,0,6.7-0.8,9.4-3.9"/>
		<circle cx="196.3" cy="77.9" r="2"/>
		<path class="st17" d="M225.7,77.3c0,0-6.7-0.8-9.4-3.9"/>
		<circle cx="219.5" cy="78.3" r="2"/>
		<path class="st10" d="M227.6,51.8c1.5-1.5,2.3-2.8,2.3-2.8l-14.4-1.1c3.2-2.5,5.4-4.5,5.4-4.5l-15.3,3.2c0.3-0.4,0.5-0.8,0.8-1.2
			c6-8.7-16.1,3.5-16.1,3.5l-10.7,13.5v9.8c0,0,6.6,0,20.3-17.8c1.4,0.5,3,0.6,5.3-0.3c2.8-1.2,5.7-2.8,8.3-4.6
			c0.1,2.2,1.1,5.8,6,5.8c2.4,0,4.4-0.7,6-1.7c0.2,1.7,1,3.8,3.8,5.2c5.5,2.8,11.8-0.8,11.8-0.8L227.6,51.8z"/>
		<circle class="st19" cx="195.7" cy="76.9" r="0.4"/>
		<circle class="st19" cx="218.5" cy="77.3" r="0.4"/>
	</g>
</g>
</svg>
