<?xml version="1.0" encoding="utf-8"?>
<!-- Generator: Adobe Illustrator 22.1.0, SVG Export Plug-In . SVG Version: 6.00 Build 0)  -->
<svg version="1.1" xmlns="http://www.w3.org/2000/svg" xmlns:xlink="http://www.w3.org/1999/xlink" x="0px" y="0px"
	 viewBox="0 0 261.7 261.7" style="enable-background:new 0 0 261.7 261.7;" xml:space="preserve">
<style type="text/css">
	.st0{fill:none;stroke:#000000;stroke-miterlimit:10;}
</style>
<g id="Layer_1">
</g>
<g id="Layer_2">
	<path class="st0" d="M-413-77c0,0,6-3.3,9.3,0c3.3,3.3,5.3,16-9.3,29.3s-24,14-20.7,24.7c3.3,10.7,18,46,28,51s8,11,14,13
		s20,4,24-21.3s-3.3-40.7,4-41.3c7.3-0.7,18.7,1.3,16.7,26.7s-13.3,90-10.7,118c2.7,28-2,33.3,29.3,35.3s46.7,12.7,71.3,0
		c24.7-12.7,37.3-13.3,37.3-13.3v-10l7.3,10c0,0,25.3-10.7,43.3-4.7s38.7,6.7,40.7,2c2-4.7,3.3-14.7,3.3-14.7l7.3,16
		c0,0,14.7,7.3,20.7,10c6,2.7,36.7,3.3,37.3-0.7c0.7-4,8-66.7-4-99.3S-109-7.7-109-7.7s8.7-27.3-4.7-50.7s-25.3-37.3-24.7-50
		c0,0-6.7,13.3-0.7,36.7s14.7,46-0.7,49.3s-89.8,12.7-105.9-2S-261.7-39-261.7-39l0,0c0,0-70.7-76-78.7-108.7c0,0-1.3,19.3-9.3,23.3
		c0,0-17.3-18-22.7-23.3c0,0,4.7,26.7,0.7,34.7S-413-77-413-77z"/>
	<path class="st0" d="M128.7,259.7c0,0,57.9-70,84.5-100.7S293.7,59.3,236,15.7S132.1,30.5,128.7,57.4c0,0-21.4-61.3-73.6-53.1
		C22.9,9.3-0.6,37.2,0,69.2c0.5,24,11.7,56,50.2,93.7C50.2,162.8,123,235.7,128.7,259.7z"/>
</g>
</svg>
