<?xml version="1.0" encoding="utf-8"?>
<!-- Generator: Adobe Illustrator 22.1.0, SVG Export Plug-In . SVG Version: 6.00 Build 0)  -->
<svg version="1.1" id="Layer_2" xmlns="http://www.w3.org/2000/svg" xmlns:xlink="http://www.w3.org/1999/xlink" x="0px" y="0px"
	 viewBox="0 0 500 500" style="enable-background:new 0 0 500 500;" xml:space="preserve">
<style type="text/css">
	.st0{fill:none;stroke:#000000;stroke-miterlimit:10;}
	.st1{stroke:#000000;stroke-miterlimit:10;}
</style>
<path class="st0" d="M378.5,263.5c0,0,2-3.5-3.5-4.5s-12,14-27,48.5S300.5,334,287.5,325s-39.5-20-51-20.5S194.5,332,168,341
	s-46.5-55.5-46.5-55.5s-3.5-2-3,5.5"/>
<path class="st0" d="M206,228.5c0,0-1-8,2.5-7s14,8,8,15s-10.6,11-10.6,11s8.3,17.3,27.8,24.3c0,0,18.8-0.4,21.8-24.6
	c0,0-22.7-15.2-6.8-29.7c0,0,2.8,3.5,1.3,8.5"/>
<path class="st0" d="M205.9,235c0,0-12.9,11-16.9,0s1.7-32,16.9-37s40.1-7,49.6-2s22.5,20.5,19.5,28.5s-7.2,13.8-19.5,8"/>
<line class="st1" x1="235.1" y1="304.6" x2="233.7" y2="271.8"/>
<circle class="st0" cx="286.9" cy="273.4" r="1.6"/>
<circle class="st0" cx="260.5" cy="291.9" r="1.6"/>
<circle class="st0" cx="288.2" cy="298.8" r="1.6"/>
<circle class="st0" cx="202.1" cy="275.6" r="1.6"/>
<circle class="st0" cx="193" cy="305.2" r="1.6"/>
<circle class="st0" cx="168.7" cy="278.8" r="1.6"/>
<circle class="st0" cx="170.3" cy="308.8" r="1.6"/>
<circle class="st0" cx="148.9" cy="301.4" r="1.6"/>
<circle class="st0" cx="140.7" cy="274.7" r="1.6"/>
<circle class="st0" cx="315.5" cy="280" r="1.6"/>
<circle class="st0" cx="333.3" cy="288.8" r="1.6"/>
<circle class="st0" cx="312.9" cy="306.8" r="1.6"/>
<path class="st0" d="M190.7,340c0,0,16.7,38.3,47.7,6.7c0,0,24.7,20.7,44.3-6.7"/>
<path class="st0" d="M293.1,162.3c0,0,7.2-13,12.9-24.3s31.7-11.3,34.3,3c2.7,14.3-9.8,21.7-27.5,19.7S293.1,162.3,293.1,162.3z"/>
<path class="st0" d="M160,176.7c0,0-11-20.7-19.7-23.3c-8.7-2.7-23.3,6-24.3,18.3c-1,12.3,18.7,14.3,31.3,9.7
	C160,176.7,155,175.3,160,176.7z"/>
<path class="st0" d="M104.7,285c0,0,0.3-10,17.3-20.4c17-10.3,21.3-17,21.3-17"/>
<path class="st0" d="M328.7,229.3c0,0,11.3,10.1,26.7,10.6c15.3,0.4,22,9.4,23.5,12.4"/>
<path class="st0" d="M164.7,224.7c0,0,19.3-31.7,34-38.7c14.7-7,25.7-13,42.7-9.7c17,3.3,41,19,47.2,26s15.2,25,15.2,25"/>
<path class="st0" d="M307,392.3c0,0,3.3-4,11.6-23.7c8.3-19.7,28.7-33.3,35.1-39.3s25.6-24.7,30.6-28.9s5.7-16.1,13-34.1
	c7.3-18,9.7-37,7.7-49.9c-2-12.8-12.3-21.2-26.1-63.6C365,110.4,349,102.3,330.8,89S280.7,72.7,268,72.3
	C255.3,72,235.3,86.7,228.7,88c-6.7,1.3-5-1.3-40.9-5.3s-61.4,35.7-74.1,47.2S91.7,206,91.3,224c0,0-2.7,18-5,23.7
	c-2.3,5.7,3.3,28.7,9.7,39.5c6.3,10.8,12.9,27.8,20,35.8c7,8,8,9,18.7,13c10.7,4,30.6,14,36.1,20.3c5.5,6.3,17,36,17,36"/>
<path class="st0" d="M181.3,354.7c0,0,20.3,9,35,15.7c14.7,6.7,43.3,11,54.8,3s34.8-18.1,41.1-23.7s21.6-15.6,21.6-15.6"/>
<path class="st0" d="M226,107c0,0,2.7,26.7,2,40.7s-0.9,23-0.9,23"/>
<path class="st0" d="M259.7,168.2c0,0,22.9,12.6,33.5,24.9"/>
<path class="st0" d="M95,268.7c0,0,0.3-9.7,11-16.3c10.7-6.7,25.7-12.7,26.7-18"/>
<path class="st0" d="M344.3,211c0,0,11.7,8,25,10.7c13.3,2.7,23,14.3,24.3,19.2"/>
<path class="st0" d="M170.8,208.3c0,0,10.1-12,17-24.7c6.9-12.6,6.9-12.6,6.9-12.6"/>
<path class="st0" d="M330.8,89c0,0,6-5.3,9.9-16.7c2.5-7.1,2-10.3,3-11.9c0.6-1,1.8-1.4,4.6-1.8c7.3-1,16.3-1.3,22.7,4
	s3.4,33.7,7.9,48c4.5,14.3,17.1,34.3,21.1,50s6.7,30.5-6.3,32.4"/>
<path class="st0" d="M365.8,122.8c0,0,4.5-5.8-4.5-23.5s-22.2-37.1-17.6-38.9"/>
<path class="st0" d="M122.7,120.3c0,0-4.7,3.7-10.3-6.6c-5.7-10.3-6.7-13.7-12.3-10c-5.7,3.7-19.1,14.3-14.2,32.3
	c4.9,18,12.9,34.7,12.9,34.7"/>
<path class="st0" d="M102.3,138.8c0,0-5.3-14.5,0-21.2c5.3-6.7,10-4,10-4"/>
<path class="st0" d="M127.7,181.8c0,0-3.8-5.8-3.7-11.2c0.2-5.3,4.8-11.3,8.7-12.2c3.8-0.8,11.7-3.2,16.7,6s-0.3,16.2-0.3,16.2"/>
<path class="st0" d="M131.2,162.2c0,0-6.5,3.2-3.7,6.1c2.8,2.9,7.7,2.4,9.2,1.5c0.7-0.4,1.2-2.3,0.7-4
	C136.8,163.7,135.1,161.9,131.2,162.2z"/>
<path class="st0" d="M139.6,172.8c0,0,2.2-0.1,2.4-1.3c0.2-1.2-0.6-2.4-1.2-2.7s-1.6,0.2-1.6,0.2s0.9,1.2-0.1,1.5s-1.8,0.6-1.8,0.6
	S137.8,173.4,139.6,172.8z"/>
<path class="st0" d="M321,152.9c0,0,2.2-0.1,2.4-1.3c0.2-1.2-0.6-2.4-1.2-2.7c-0.6-0.3-1.6,0.2-1.6,0.2s0.9,1.2-0.1,1.5
	s-1.8,0.6-1.8,0.6S319.1,153.4,321,152.9z"/>
<path class="st0" d="M312.7,141.7c0,0-6.5,3.2-3.7,6.1c2.8,2.9,7.7,2.4,9.2,1.5c0.7-0.4,1.2-2.3,0.7-4
	C318.4,143.3,316.6,141.5,312.7,141.7z"/>
<path class="st0" d="M305.5,160.1c0,0-4.3-8.6-1.8-13.2c2.5-4.7,5.5-11.3,16-12.2c0,0,13.2,0.2,15.3,8c2.2,7.8,0.6,13.7-1.4,14.7"/>
<path class="st0" d="M142.2,420.5c0,0,8.3-20.5,9.3-33c1-12.5,0.5-31.9,8.5-39.2"/>
<path class="st0" d="M397.3,266.4c0,0,35.7,39.1,43.2,61.6s13.5,52.2,23,64.3c9.5,12.2,14,27.7,14.5,35.2"/>
</svg>
