<?xml version="1.0" encoding="utf-8"?>
<!-- Generator: Adobe Illustrator 22.1.0, SVG Export Plug-In . SVG Version: 6.00 Build 0)  -->
<svg version="1.1" xmlns="http://www.w3.org/2000/svg" xmlns:xlink="http://www.w3.org/1999/xlink" x="0px" y="0px"
	 viewBox="0 0 85 153" style="enable-background:new 0 0 85 153;" xml:space="preserve">
<style type="text/css">
	.st0{display:none;}
	.st1{display:inline;}
	.st2{fill:#F90808;stroke:#F40000;stroke-width:9;stroke-miterlimit:10;}
	.st3{fill:#00D9FF;}
	.st4{fill:#EFC929;}
	.st5{fill:#390D9B;}
	.st6{fill:#EDB52B;}
	.st7{fill:#F7DCD5;}
	.st8{fill:#F7D7D6;}
	.st9{fill:#E5BDBD;}
	.st10{fill:none;stroke:#000000;stroke-miterlimit:10;}
	.st11{fill:#F7AED6;}
	.st12{fill:#FFFFFF;}
</style>
<g id="Layer_3" class="st0">
	<rect x="-141.5" y="246.5" style="display:inline;fill:none;" width="500" height="259.5"/>
	
		<text transform="matrix(1 0 0 1 -141.5 421.917)" style="display:inline;fill:#F90808;stroke:#F40000;stroke-width:9;stroke-miterlimit:10; font-family:'Arial-Black'; font-size:245px;">404</text>
</g>
<g id="Layer_2">
	<path class="st3" d="M84.6,35.1c0-2.1-1-4-2.6-5.4c0.9-1.2,1.4-2.6,1.4-4.1c0-4.5-4.7-8.2-10.4-8.2c-0.6,0-1.2,0-1.7,0.1
		c-0.7-4-5.1-7.1-10.3-7.1c-0.2,0-0.5,0-0.7,0c-1.9-2.1-5-3.5-8.5-3.5c-3,0-5.7,1-7.6,2.6c-0.2,0.1-0.4,0.1-0.6,0.2
		c-1.9-1.3-4.3-2.1-7-2.1c-3.8,0-7.1,1.6-8.9,4c-0.7-0.1-1.5-0.2-2.3-0.2c-4.8,0-8.8,2.5-10,6c-3.3,1.4-5.6,4.1-5.6,7.3
		c0,0.7,0.1,1.4,0.3,2.1c-2.2,1.5-3.5,3.7-3.5,6.2c0,1.8,0.7,3.5,2,4.9C6.9,39.2,6,41,6,43c0,3.9,3.5,7.2,8.2,8
		c1.4,3.2,5.3,5.6,9.9,5.6c5.8,0,10.4-3.7,10.4-8.2c0-3.9-3.5-7.2-8.2-8c-0.3-0.8-0.8-1.5-1.5-2.2c1.5-1.4,2.4-3.3,2.4-5.3
		c0-0.7-0.1-1.4-0.3-2.1c1.5-1,2.6-2.4,3.1-3.9c1.7-0.7,3.1-1.8,4.1-3.1c0.7,0.1,1.5,0.2,2.3,0.2c1.3,0,2.6-0.2,3.8-0.6
		c1.9,1.3,4.3,2.1,7,2.1c2.2,0,4.2-0.5,5.9-1.4c1.9,1.7,4.7,2.7,7.7,2.7c0.6,0,1.2,0,1.7-0.1c0.3,1.6,1.2,3.1,2.5,4.3
		c-0.9,1.2-1.4,2.6-1.4,4.1c0,1.4,0.5,2.8,1.3,3.9c-0.5,0.8-0.9,1.6-1.1,2.5c-4.1,1.1-7,4.2-7,7.8c0,4.5,4.7,8.2,10.4,8.2
		c5.1,0,9.4-2.9,10.3-6.8c4.1-1.1,7-4.2,7-7.8c0-1.4-0.5-2.8-1.3-3.9C84.2,37.9,84.6,36.5,84.6,35.1z"/>
	<path class="st4" d="M55.2,108.1H37.8c-2.3,0-4.2-1.5-4.2-3.4L35.8,81c0-1.9,1.9-3.4,4.2-3.4h12.1c2.3,0,4.2,1.5,4.2,3.4l3.1,23.7
		C59.4,106.6,57.5,108.1,55.2,108.1z"/>
	<path class="st5" d="M36.3,144l-1.6-0.2c-2.7-0.3-4.6-2.8-4.3-5.5l3.8-30.4c0.3-2.7,2.8-4.6,5.5-4.3l1.6,0.2
		c2.7,0.3,4.6,2.8,4.3,5.5l-3.8,30.4C41.5,142.4,39,144.3,36.3,144z"/>
	<path class="st5" d="M57,144.3l-2.6,0.3c-2.2,0.3-4.3-1.3-4.6-3.6l-4-32.1c-0.3-2.2,1.3-4.3,3.6-4.6l2.6-0.3
		c2.2-0.3,4.3,1.3,4.6,3.6l4,32.1C60.8,141.9,59.2,144,57,144.3z"/>
	<path class="st5" d="M49.5,111.6h-7.5c-0.9,0-1.6-0.7-1.6-1.6v-0.9c0-0.9,0.7-1.6,1.6-1.6h7.5c0.9,0,1.6,0.7,1.6,1.6v0.9
		C51.1,110.9,50.4,111.6,49.5,111.6z"/>
	<path class="st6" d="M59.8,120.1l0.8-0.1c2.2-0.2,3.8-2.2,3.6-4.4l-3.3-33.6c-0.2-2.2-2.2-3.8-4.4-3.6l-0.8,0.1
		c-2.2,0.2-3.8,2.2-3.6,4.4l3.3,33.6C55.6,118.7,57.6,120.4,59.8,120.1z"/>
	<path class="st6" d="M32.8,120.1l-0.8-0.1c-2.2-0.2-3.8-2.2-3.6-4.4l3.3-33.6c0.2-2.2,2.2-3.8,4.4-3.6l0.8,0.1
		c2.2,0.2,3.8,2.2,3.6,4.4l-3.3,33.6C37,118.7,35,120.4,32.8,120.1z"/>
	<path d="M37.5,147h-3.2c-2.5,0-4.6-2.1-4.6-4.6v0c0-2.5,2.1-4.6,4.6-4.6h3.2c2.5,0,4.6,2.1,4.6,4.6v0C42.1,144.9,40,147,37.5,147z"
		/>
	<path d="M56.7,147h-3.2c-2.5,0-4.6-2.1-4.6-4.6v0c0-2.5,2.1-4.6,4.6-4.6h3.2c2.5,0,4.6,2.1,4.6,4.6v0C61.4,144.9,59.3,147,56.7,147
		z"/>
</g>
<g id="Layer_1">
	<path class="st7" d="M49.2,20.3h-7.6c-13.8,0-24.9,10.6-24.9,23.6v2.7l0.1,7.7c1,11.7,11,21.1,23.5,21.7v1.6c0,2,1.6,3.7,3.7,3.7
		h4.8c2,0,3.7-1.6,3.7-3.7v-1.8C64,74.4,73.1,65.5,74.1,54.3l0.1-7.8v-2.6C74.1,30.9,63,20.3,49.2,20.3z"/>
	<path class="st8" d="M16.4,56.3"/>
	<path class="st7" d="M18.8,57.4L18.8,57.4c2.2-1.3,3-4.1,1.7-6.3l-2.2-3.7c-1.3-2.2-4.1-3-6.3-1.7l0,0c-2.2,1.3-3,4.1-1.7,6.3
		l2.2,3.7C13.8,57.9,16.6,58.6,18.8,57.4z"/>
	<path class="st7" d="M69.8,57.4L69.8,57.4c-2.2-1.3-3-4.1-1.7-6.3l2.2-3.7c1.3-2.2,4.1-3,6.3-1.7l0,0c2.2,1.3,3,4.1,1.7,6.3
		l-2.2,3.7C74.9,57.9,72,58.6,69.8,57.4z"/>
	<path class="st9" d="M42.5,57.7c0,0,2.8-5.7,5.8,0H42.5z"/>
	<path class="st10" d="M49.7,63c0,0-0.5-0.7-1.4-1.3c-1.6-1.1-4.3-1.9-7,1.3"/>
	<ellipse class="st11" cx="62.4" cy="57.5" rx="5" ry="1.2"/>
	<ellipse class="st11" cx="29.1" cy="57.5" rx="5" ry="1.2"/>
	<path d="M16.6,50.4"/>
	<path class="st10" d="M26.1,49.9c0,0,6.8-0.8,9.6-4"/>
	<circle cx="32.3" cy="50.9" r="2"/>
	<path class="st10" d="M62.2,50.3c0,0-6.8-0.8-9.6-4"/>
	<circle cx="55.9" cy="51.3" r="2"/>
	<path class="st3" d="M64.2,24.3c1.5-1.5,2.3-2.9,2.3-2.9l-14.7-1.1c3.3-2.5,5.5-4.6,5.5-4.6L41.7,19c0.3-0.4,0.5-0.8,0.8-1.2
		c6.1-8.9-16.4,3.6-16.4,3.6L15.2,35.1v10c0,0,6.7,0,20.7-18.1c1.4,0.5,3.1,0.6,5.4-0.3c2.9-1.2,5.8-2.9,8.4-4.7
		c0.1,2.2,1.1,5.9,6.1,5.9c2.4,0,4.5-0.7,6.1-1.7c0.2,1.7,1,3.9,3.9,5.3c5.6,2.8,12-0.8,12-0.8L64.2,24.3z"/>
	<circle class="st12" cx="31.7" cy="49.9" r="0.4"/>
	<circle class="st12" cx="54.9" cy="50.3" r="0.4"/>
</g>
</svg>
